<svg width="657.9px" height="121.3px" xmlns="http://www.w3.org/2000/svg" viewBox="-78.96251220703124 14.34007720947266 657.9250244140625 121.31984558105468" style="background: rgba(0, 0, 0, 0)" preserveAspectRatio="xMidYMid"><defs><linearGradient id="editing-gradient-gradient" x1="0" x2="1" y1="0.5" y2="0.5" gradientUnits="objectBoundingBox"><stop offset="0" stop-color="#51b3e6"></stop><stop offset="1" stop-color="#e64dde"></stop></linearGradient></defs><g><g transform="matrix(1.4,0,0,1.4,-55.2,91.1)"><path d="M 9.9 7.3 L -4.1 7.3 L 4 -35 L 18.1 -35 L 9.9 7.3 Z M 65.6 8.5 L 65.6 8.5 L 65.6 8.5 Q 57.9 8.5 57.9 2.5 L 57.9 2.5 L 57.9 2.5 Q 57.9 -0.1 59 -5.2 L 59 -5.2 L 59 -5.2 Q 60.1 -10.3 60.5 -12.3 L 60.5 -12.3 L 60.5 -12.3 Q 61.4 -17 61.4 -18.5 L 61.4 -18.5 L 61.4 -18.5 Q 61.4 -21.7 59 -21.7 L 59 -21.7 L 59 -21.7 Q 57.4 -21.7 55.8 -19.5 L 55.8 -19.5 L 55.8 -19.5 Q 54.3 -17.3 53.6 -12.9 L 53.6 -12.9 L 49.6 7.3 L 37.1 8.5 L 40.6 -8.9 L 40.6 -8.9 Q 41.2 -11.8 41.7 -15 L 41.7 -15 L 41.7 -15 Q 42.2 -18.3 42.2 -18.8 L 42.2 -18.8 L 42.2 -18.8 Q 42.2 -21.7 40 -21.7 L 40 -21.7 L 40 -21.7 Q 38.5 -21.7 36.9 -19.6 L 36.9 -19.6 L 36.9 -19.6 Q 35.3 -17.4 34.4 -12.9 L 34.4 -12.9 L 30.5 7.3 L 17.9 8.5 L 24.7 -25.4 L 35.1 -26.7 L 34 -20.2 L 34 -20.2 Q 35.7 -23.7 38.7 -25.2 L 38.7 -25.2 L 38.7 -25.2 Q 41.8 -26.7 46.6 -26.7 L 46.6 -26.7 L 46.6 -26.7 Q 49.4 -26.7 51.2 -25.3 L 51.2 -25.3 L 51.2 -25.3 Q 52.9 -24 53.5 -21.8 L 53.5 -21.8 L 53.5 -21.8 Q 54.6 -24 57.4 -25.4 L 57.4 -25.4 L 57.4 -25.4 Q 60.2 -26.7 63.6 -26.7 L 63.6 -26.7 L 63.6 -26.7 Q 67 -26.7 68.7 -25.9 L 68.7 -25.9 L 68.7 -25.9 Q 70.4 -25.2 71.4 -24 L 71.4 -24 L 71.4 -24 Q 73.2 -21.7 73.2 -17.6 L 73.2 -17.6 L 73.2 -17.6 Q 73.2 -13.6 71.4 -5.2 L 71.4 -5.2 L 71.4 -5.2 Q 70.5 -1.1 70.5 0.4 L 70.5 0.4 L 70.5 0.4 Q 70.5 1.9 71.4 2.8 L 71.4 2.8 L 71.4 2.8 Q 72.3 3.7 73.6 3.8 L 73.6 3.8 L 73.6 3.8 Q 72.9 6 70.7 7.3 L 70.7 7.3 L 70.7 7.3 Q 68.5 8.5 65.6 8.5 Z M 81.3 5.3 L 81.3 5.3 L 81.3 5.3 Q 79.8 3.7 79.1 1 L 79.1 1 L 79.1 1 Q 78.4 -1.6 78.4 -5.9 L 78.4 -5.9 L 78.4 -5.9 Q 78.4 -10.2 79.9 -14.1 L 79.9 -14.1 L 79.9 -14.1 Q 81.4 -18 84 -20.8 L 84 -20.8 L 84 -20.8 Q 89.6 -26.7 98.6 -26.7 L 98.6 -26.7 L 98.6 -26.7 Q 101.9 -26.7 104.3 -25.6 L 104.3 -25.6 L 115.2 -26.7 L 110.5 -1.7 L 110.5 -1.7 Q 110.3 -0.9 110.3 0.5 L 110.3 0.5 L 110.3 0.5 Q 110.3 1.9 111.2 2.8 L 111.2 2.8 L 111.2 2.8 Q 112 3.7 113.3 3.8 L 113.3 3.8 L 113.3 3.8 Q 112.7 6 110.3 7.3 L 110.3 7.3 L 110.3 7.3 Q 108 8.5 105.4 8.5 L 105.4 8.5 L 105.4 8.5 Q 102.7 8.5 101 7.5 L 101 7.5 L 101 7.5 Q 99.2 6.6 98.7 4.9 L 98.7 4.9 L 98.7 4.9 Q 97.7 6.5 95.5 7.5 L 95.5 7.5 L 95.5 7.5 Q 93.3 8.5 90.4 8.5 L 90.4 8.5 L 90.4 8.5 Q 87.5 8.5 85.1 7.8 L 85.1 7.8 L 85.1 7.8 Q 82.8 7 81.3 5.3 Z M 94.8 -20.6 L 94.8 -20.6 L 94.8 -20.6 Q 94 -19.5 93.4 -17.5 L 93.4 -17.5 L 93.4 -17.5 Q 92.8 -15.6 91.7 -10.4 L 91.7 -10.4 L 91.7 -10.4 Q 90.6 -5.2 90.6 -1.4 L 90.6 -1.4 L 90.6 -1.4 Q 90.6 2.3 91.2 3.4 L 91.2 3.4 L 91.2 3.4 Q 91.8 4.4 92.8 4.4 L 92.8 4.4 L 92.8 4.4 Q 94.9 4.4 96.4 2.5 L 96.4 2.5 L 96.4 2.5 Q 97.9 0.5 98.4 -2.9 L 98.4 -2.9 L 101.8 -21.7 L 101.8 -21.7 Q 100.5 -22.8 98.9 -22.8 L 98.9 -22.8 L 98.9 -22.8 Q 97.4 -22.8 96.4 -22.3 L 96.4 -22.3 L 96.4 -22.3 Q 95.5 -21.8 94.8 -20.6 Z M 123 -19.5 L 123 -19.5 L 123 -19.5 Q 125.1 -22.6 128.4 -24.6 L 128.4 -24.6 L 128.4 -24.6 Q 131.7 -26.7 135.8 -26.7 L 135.8 -26.7 L 135.8 -26.7 Q 139.8 -26.7 141.7 -25.4 L 141.7 -25.4 L 154.3 -26.7 L 149.9 -2.1 L 149.9 -2.1 Q 147.7 10.5 142.9 15.4 L 142.9 15.4 L 142.9 15.4 Q 138.4 20.1 129.6 20.1 L 129.6 20.1 L 129.6 20.1 Q 122.8 20.1 119 17.9 L 119 17.9 L 119 17.9 Q 115.2 15.8 115.2 12.3 L 115.2 12.3 L 115.2 12.3 Q 115.2 9.7 117.1 8.2 L 117.1 8.2 L 117.1 8.2 Q 119.1 6.7 122.2 6.7 L 122.2 6.7 L 122.2 6.7 Q 124.9 6.7 126.9 7.9 L 126.9 7.9 L 126.9 7.9 Q 128.1 8.5 128.7 9.4 L 128.7 9.4 L 128.7 9.4 Q 127.2 10.7 127.2 12.8 L 127.2 12.8 L 127.2 12.8 Q 127.2 15.6 129.8 15.6 L 129.8 15.6 L 129.8 15.6 Q 134.1 15.6 136.5 5.5 L 136.5 5.5 L 136.5 5.5 Q 137.2 2.7 137.8 0 L 137.8 0 L 137.8 0 Q 134.9 3.5 128.4 3.5 L 128.4 3.5 L 128.4 3.5 Q 123.9 3.5 121.2 1.3 L 121.2 1.3 L 121.2 1.3 Q 118.6 -0.9 118.6 -6 L 118.6 -6 L 118.6 -6 Q 118.6 -9.2 119.7 -12.8 L 119.7 -12.8 L 119.7 -12.8 Q 120.8 -16.4 123 -19.5 Z M 131.3 -5.8 L 131.3 -5.8 L 131.3 -5.8 Q 131.3 -1.4 133.5 -1.4 L 133.5 -1.4 L 133.5 -1.4 Q 135.1 -1.4 136.5 -3.1 L 136.5 -3.1 L 136.5 -3.1 Q 137.7 -4.5 138.1 -6.4 L 138.1 -6.4 L 141.4 -22.9 L 141.4 -22.9 Q 141.1 -23 140.8 -23.1 L 140.8 -23.1 L 140.8 -23.1 Q 140.1 -23.3 139.3 -23.3 L 139.3 -23.3 L 139.3 -23.3 Q 135.4 -23.3 133.1 -16.9 L 133.1 -16.9 L 133.1 -16.9 Q 131.3 -11.9 131.3 -5.8 Z M 182.7 -3.6 L 182.7 -3.6 L 182.7 -3.6 Q 184.3 -2.5 184.3 -0.1 L 184.3 -0.1 L 184.3 -0.1 Q 184.3 2.3 183.1 3.9 L 183.1 3.9 L 183.1 3.9 Q 181.8 5.4 179.9 6.4 L 179.9 6.4 L 179.9 6.4 Q 175.8 8.5 171.3 8.5 L 171.3 8.5 L 171.3 8.5 Q 166.9 8.5 164.3 7.6 L 164.3 7.6 L 164.3 7.6 Q 161.7 6.6 160 4.8 L 160 4.8 L 160 4.8 Q 156.6 1.4 156.6 -4.8 L 156.6 -4.8 L 156.6 -4.8 Q 156.6 -14.4 161.9 -20.3 L 161.9 -20.3 L 161.9 -20.3 Q 167.5 -26.7 177.3 -26.7 L 177.3 -26.7 L 177.3 -26.7 Q 183.4 -26.7 186.4 -24.1 L 186.4 -24.1 L 186.4 -24.1 Q 188.6 -22.2 188.6 -19 L 188.6 -19 L 188.6 -19 Q 188.6 -7.8 169.2 -7.8 L 169.2 -7.8 L 169.2 -7.8 Q 168.9 -6.1 168.9 -4.7 L 168.9 -4.7 L 168.9 -4.7 Q 168.9 -1.8 170.2 -0.6 L 170.2 -0.6 L 170.2 -0.6 Q 171.5 0.5 174 0.5 L 174 0.5 L 174 0.5 Q 176.4 0.5 179 -0.6 L 179 -0.6 L 179 -0.6 Q 181.6 -1.8 182.7 -3.6 Z M 169.6 -10.5 L 169.6 -10.5 L 169.6 -10.5 Q 174.2 -10.5 176.8 -13.4 L 176.8 -13.4 L 176.8 -13.4 Q 179.4 -16 179.4 -20.3 L 179.4 -20.3 L 179.4 -20.3 Q 179.4 -21.8 178.9 -22.6 L 178.9 -22.6 L 178.9 -22.6 Q 178.3 -23.4 177.2 -23.4 L 177.2 -23.4 L 177.2 -23.4 Q 176.1 -23.4 175.2 -23 L 175.2 -23 L 175.2 -23 Q 174.3 -22.6 173.3 -21.2 L 173.3 -21.2 L 173.3 -21.2 Q 171 -18 169.6 -10.5 Z M 209.9 -15.2 L 209.9 -15.2 L 209.9 -15.2 Q 210.8 -17.6 210.8 -19.6 L 210.8 -19.6 L 210.8 -19.6 Q 210.8 -23.4 207.8 -23.4 L 207.8 -23.4 L 207.8 -23.4 Q 206.2 -23.4 204.8 -22 L 204.8 -22 L 204.8 -22 Q 203.5 -20.5 203.5 -18.7 L 203.5 -18.7 L 203.5 -18.7 Q 203.5 -17.4 204.6 -16.4 L 204.6 -16.4 L 204.6 -16.4 Q 206 -15 209.8 -12.7 L 209.8 -12.7 L 209.8 -12.7 Q 213.6 -10.4 215 -8.5 L 215 -8.5 L 215 -8.5 Q 216.5 -6.6 216.5 -4 L 216.5 -4 L 216.5 -4 Q 216.5 -1.4 215.2 0.9 L 215.2 0.9 L 215.2 0.9 Q 214 3.3 211.7 5 L 211.7 5 L 211.7 5 Q 206.9 8.5 199.2 8.5 L 199.2 8.5 L 199.2 8.5 Q 195.1 8.5 191.9 6.4 L 191.9 6.4 L 191.9 6.4 Q 188.7 4.2 188.7 1.8 L 188.7 1.8 L 188.7 1.8 Q 188.7 -0.7 190.5 -2.2 L 190.5 -2.2 L 190.5 -2.2 Q 192.3 -3.7 195 -3.7 L 195 -3.7 L 195 -3.7 Q 197.7 -3.7 199.4 -2.7 L 199.4 -2.7 L 199.4 -2.7 Q 198.5 -0.6 198.5 0.9 L 198.5 0.9 L 198.5 0.9 Q 198.5 5.1 202.1 5.1 L 202.1 5.1 L 202.1 5.1 Q 203.7 5.1 204.7 4.1 L 204.7 4.1 L 204.7 4.1 Q 205.7 3.2 205.7 1.5 L 205.7 1.5 L 205.7 1.5 Q 205.7 -1.8 200.2 -5.2 L 200.2 -5.2 L 200.2 -5.2 Q 195.7 -8.2 194.7 -9.3 L 194.7 -9.3 L 194.7 -9.3 Q 193 -11.4 193 -13.9 L 193 -13.9 L 193 -13.9 Q 193 -16.5 194.2 -18.9 L 194.2 -18.9 L 194.2 -18.9 Q 195.4 -21.4 197.6 -23.1 L 197.6 -23.1 L 197.6 -23.1 Q 202.3 -26.7 210.4 -26.7 L 210.4 -26.7 L 210.4 -26.7 Q 214.6 -26.7 217.1 -25 L 217.1 -25 L 217.1 -25 Q 219.5 -23.3 219.5 -20.5 L 219.5 -20.5 L 219.5 -20.5 Q 219.5 -17.7 217.8 -16.1 L 217.8 -16.1 L 217.8 -16.1 Q 216.1 -14.5 213.1 -14.5 L 213.1 -14.5 L 213.1 -14.5 Q 211 -14.5 209.9 -15.2 Z M 261 -13.4 L 273.9 -14.5 L 273.9 -14.5 Q 269.3 -4.4 269.3 7.3 L 269.3 7.3 L 269.3 7.3 Q 267.6 8.5 265.1 8.5 L 265.1 8.5 L 265.1 8.5 Q 262.5 8.5 260.9 7.4 L 260.9 7.4 L 260.9 7.4 Q 259.3 6.2 259 5 L 259 5 L 259 5 Q 257.4 6.6 254.8 7.6 L 254.8 7.6 L 254.8 7.6 Q 252.2 8.5 249.5 8.5 L 249.5 8.5 L 249.5 8.5 Q 246.7 8.5 244.3 7.6 L 244.3 7.6 L 244.3 7.6 Q 241.9 6.7 240.1 4.8 L 240.1 4.8 L 240.1 4.8 Q 236 0.4 236 -7.8 L 236 -7.8 L 236 -7.8 Q 236 -20.6 242.8 -28.3 L 242.8 -28.3 L 242.8 -28.3 Q 249.9 -36.3 262.4 -36.3 L 262.4 -36.3 L 262.4 -36.3 Q 271 -36.3 274.1 -31.8 L 274.1 -31.8 L 274.1 -31.8 Q 275 -30.4 275 -28.7 L 275 -28.7 L 275 -28.7 Q 275 -27 274.3 -25.5 L 274.3 -25.5 L 274.3 -25.5 Q 273.6 -24.1 272.4 -23 L 272.4 -23 L 272.4 -23 Q 269.6 -20.4 266.3 -20.4 L 266.3 -20.4 L 266.3 -20.4 Q 264.9 -20.4 263.6 -20.8 L 263.6 -20.8 L 263.6 -20.8 Q 263.9 -22.8 263.9 -25 L 263.9 -25 L 263.9 -25 Q 263.9 -27.2 263.7 -28.3 L 263.7 -28.3 L 263.7 -28.3 Q 263.6 -29.3 263.2 -30.1 L 263.2 -30.1 L 263.2 -30.1 Q 262.4 -31.8 260.5 -31.8 L 260.5 -31.8 L 260.5 -31.8 Q 258.7 -31.8 256.7 -29.9 L 256.7 -29.9 L 256.7 -29.9 Q 254.7 -27.9 253.1 -24.7 L 253.1 -24.7 L 253.1 -24.7 Q 249.6 -17.6 249.6 -8.9 L 249.6 -8.9 L 249.6 -8.9 Q 249.6 -5 251.1 -2.2 L 251.1 -2.2 L 251.1 -2.2 Q 252.8 0.9 255.7 0.9 L 255.7 0.9 L 255.7 0.9 Q 256.7 0.9 257.6 0.4 L 257.6 0.4 L 257.6 0.4 Q 258.6 -0.1 259 -0.5 L 259 -0.5 L 261 -13.4 Z M 279.9 5.3 L 279.9 5.3 L 279.9 5.3 Q 278.4 3.7 277.7 1 L 277.7 1 L 277.7 1 Q 277 -1.6 277 -5.9 L 277 -5.9 L 277 -5.9 Q 277 -10.2 278.5 -14.1 L 278.5 -14.1 L 278.5 -14.1 Q 280 -18 282.6 -20.8 L 282.6 -20.8 L 282.6 -20.8 Q 288.1 -26.7 297.2 -26.7 L 297.2 -26.7 L 297.2 -26.7 Q 300.5 -26.7 302.9 -25.6 L 302.9 -25.6 L 313.8 -26.7 L 309.1 -1.7 L 309.1 -1.7 Q 308.9 -0.9 308.9 0.5 L 308.9 0.5 L 308.9 0.5 Q 308.9 1.9 309.7 2.8 L 309.7 2.8 L 309.7 2.8 Q 310.6 3.7 311.9 3.8 L 311.9 3.8 L 311.9 3.8 Q 311.2 6 308.9 7.3 L 308.9 7.3 L 308.9 7.3 Q 306.6 8.5 304 8.5 L 304 8.5 L 304 8.5 Q 301.3 8.5 299.6 7.5 L 299.6 7.5 L 299.6 7.5 Q 297.8 6.6 297.3 4.9 L 297.3 4.9 L 297.3 4.9 Q 296.3 6.5 294.1 7.5 L 294.1 7.5 L 294.1 7.5 Q 291.9 8.5 289 8.5 L 289 8.5 L 289 8.5 Q 286.1 8.5 283.7 7.8 L 283.7 7.8 L 283.7 7.8 Q 281.4 7 279.9 5.3 Z M 293.4 -20.6 L 293.4 -20.6 L 293.4 -20.6 Q 292.6 -19.5 292 -17.5 L 292 -17.5 L 292 -17.5 Q 291.3 -15.6 290.3 -10.4 L 290.3 -10.4 L 290.3 -10.4 Q 289.2 -5.2 289.2 -1.4 L 289.2 -1.4 L 289.2 -1.4 Q 289.2 2.3 289.8 3.4 L 289.8 3.4 L 289.8 3.4 Q 290.4 4.4 291.4 4.4 L 291.4 4.4 L 291.4 4.4 Q 293.5 4.4 295 2.5 L 295 2.5 L 295 2.5 Q 296.5 0.5 297 -2.9 L 297 -2.9 L 300.4 -21.7 L 300.4 -21.7 Q 299.1 -22.8 297.5 -22.8 L 297.5 -22.8 L 297.5 -22.8 Q 296 -22.8 295 -22.3 L 295 -22.3 L 295 -22.3 Q 294.1 -21.8 293.4 -20.6 Z M 332.6 3.7 L 332.6 3.7 L 332.6 3.7 Q 330.6 8.5 324.2 8.5 L 324.2 8.5 L 324.2 8.5 Q 321 8.5 319 6.3 L 319 6.3 L 319 6.3 Q 317.3 4.4 317.3 2.3 L 317.3 2.3 L 317.3 2.3 Q 317.3 -2.5 319.6 -13 L 319.6 -13 L 324.2 -37.5 L 337.2 -38.8 L 331 -6.4 L 331 -6.4 Q 329.9 -1.7 329.9 0 L 329.9 0 L 329.9 0 Q 329.9 3.6 332.6 3.7 Z M 353.3 3.7 L 353.3 3.7 L 353.3 3.7 Q 351.3 8.5 345 8.5 L 345 8.5 L 345 8.5 Q 341.8 8.5 339.7 6.3 L 339.7 6.3 L 339.7 6.3 Q 338.1 4.4 338.1 2.3 L 338.1 2.3 L 338.1 2.3 Q 338.1 -2.5 340.3 -13 L 340.3 -13 L 345 -37.5 L 358 -38.8 L 351.8 -6.4 L 351.8 -6.4 Q 350.7 -1.7 350.7 0 L 350.7 0 L 350.7 0 Q 350.7 3.6 353.3 3.7 Z M 384.7 -3.6 L 384.7 -3.6 L 384.7 -3.6 Q 386.3 -2.5 386.3 -0.1 L 386.3 -0.1 L 386.3 -0.1 Q 386.3 2.3 385 3.9 L 385 3.9 L 385 3.9 Q 383.8 5.4 381.8 6.4 L 381.8 6.4 L 381.8 6.4 Q 377.7 8.5 373.3 8.5 L 373.3 8.5 L 373.3 8.5 Q 368.9 8.5 366.3 7.6 L 366.3 7.6 L 366.3 7.6 Q 363.7 6.6 362 4.8 L 362 4.8 L 362 4.8 Q 358.6 1.4 358.6 -4.8 L 358.6 -4.8 L 358.6 -4.8 Q 358.6 -14.4 363.9 -20.3 L 363.9 -20.3 L 363.9 -20.3 Q 369.5 -26.7 379.3 -26.7 L 379.3 -26.7 L 379.3 -26.7 Q 385.4 -26.7 388.4 -24.1 L 388.4 -24.1 L 388.4 -24.1 Q 390.6 -22.2 390.6 -19 L 390.6 -19 L 390.6 -19 Q 390.6 -7.8 371.2 -7.8 L 371.2 -7.8 L 371.2 -7.8 Q 370.9 -6.1 370.9 -4.7 L 370.9 -4.7 L 370.9 -4.7 Q 370.9 -1.8 372.2 -0.6 L 372.2 -0.6 L 372.2 -0.6 Q 373.5 0.5 376 0.5 L 376 0.5 L 376 0.5 Q 378.4 0.5 381 -0.6 L 381 -0.6 L 381 -0.6 Q 383.6 -1.8 384.7 -3.6 Z M 371.6 -10.5 L 371.6 -10.5 L 371.6 -10.5 Q 376.1 -10.5 378.8 -13.4 L 378.8 -13.4 L 378.8 -13.4 Q 381.4 -16 381.4 -20.3 L 381.4 -20.3 L 381.4 -20.3 Q 381.4 -21.8 380.8 -22.6 L 380.8 -22.6 L 380.8 -22.6 Q 380.3 -23.4 379.2 -23.4 L 379.2 -23.4 L 379.2 -23.4 Q 378.1 -23.4 377.2 -23 L 377.2 -23 L 377.2 -23 Q 376.3 -22.6 375.3 -21.2 L 375.3 -21.2 L 375.3 -21.2 Q 372.9 -18 371.6 -10.5 Z M 412.8 -10.7 L 412.8 -10.7 L 412.8 -10.7 Q 415.1 -14.8 415.1 -19 L 415.1 -19 L 415.1 -19 Q 415.1 -21.7 413.1 -21.7 L 413.1 -21.7 L 413.1 -21.7 Q 411.6 -21.7 410 -19.1 L 410 -19.1 L 410 -19.1 Q 408.3 -16.5 407.8 -13.1 L 407.8 -13.1 L 404.5 7.3 L 391.2 8.5 L 397.8 -25.4 L 408.3 -26.7 L 407.2 -20.2 L 407.2 -20.2 Q 410.3 -26.7 417.4 -26.7 L 417.4 -26.7 L 417.4 -26.7 Q 421.1 -26.7 423.1 -24.7 L 423.1 -24.7 L 423.1 -24.7 Q 425.1 -22.8 425.1 -18.9 L 425.1 -18.9 L 425.1 -18.9 Q 425.1 -15 422.5 -12.5 L 422.5 -12.5 L 422.5 -12.5 Q 419.9 -10 415.5 -10 L 415.5 -10 L 415.5 -10 Q 413.6 -10 412.8 -10.7 Z M 446.5 0 L 446.5 0 L 446.5 0 Q 443.2 3.5 437.1 3.5 L 437.1 3.5 L 437.1 3.5 Q 429.5 3.5 427.9 -2.1 L 427.9 -2.1 L 427.9 -2.1 Q 427.3 -3.8 427.3 -5.6 L 427.3 -5.6 L 427.3 -5.6 Q 427.3 -7.5 427.7 -9.4 L 427.7 -9.4 L 430.7 -25.4 L 443.7 -26.7 L 440.2 -8 L 440.2 -8 Q 440.1 -7.2 439.9 -6.3 L 439.9 -6.3 L 439.9 -6.3 Q 439.7 -5.4 439.7 -4.5 L 439.7 -4.5 L 439.7 -4.5 Q 439.7 -3.6 440 -3 L 440 -3 L 440 -3 Q 440.3 -2.3 440.8 -2 L 440.8 -2 L 440.8 -2 Q 441.6 -1.4 442.9 -1.4 L 442.9 -1.4 L 442.9 -1.4 Q 444.3 -1.4 445.5 -3.1 L 445.5 -3.1 L 445.5 -3.1 Q 446.7 -4.8 447.2 -7.7 L 447.2 -7.7 L 450.8 -25.4 L 463.4 -26.7 L 458.6 -1.5 L 458.6 -1.5 Q 456.2 10.8 451.3 15.6 L 451.3 15.6 L 451.3 15.6 Q 448.8 18.1 445.6 19.1 L 445.6 19.1 L 445.6 19.1 Q 442.4 20.1 438.2 20.1 L 438.2 20.1 L 438.2 20.1 Q 431.5 20.1 427.7 18 L 427.7 18 L 427.7 18 Q 423.8 15.9 423.8 12.4 L 423.8 12.4 L 423.8 12.4 Q 423.8 9.8 425.8 8.2 L 425.8 8.2 L 425.8 8.2 Q 427.8 6.7 430.9 6.7 L 430.9 6.7 L 430.9 6.7 Q 433.6 6.7 435.6 7.9 L 435.6 7.9 L 435.6 7.9 Q 436.8 8.6 437.4 9.5 L 437.4 9.5 L 437.4 9.5 Q 435.9 10.8 435.9 12.9 L 435.9 12.9 L 435.9 12.9 Q 435.9 15.7 438.5 15.7 L 438.5 15.7 L 438.5 15.7 Q 442.7 15.7 445.1 6 L 445.1 6 L 445.1 6 Q 445.8 3.1 446.5 0 Z" fill="url(#editing-gradient-gradient)"></path></g></g><style>text {
  font-size: 64px;
  font-family: Arial Black;
  dominant-baseline: central;
  text-anchor: middle;
}</style>
    <ellipse cx="170" cy="62" rx="0" ry="0" fill="rgb(255, 255, 255)"/></svg>